<svg xmlns="http://www.w3.org/2000/svg" width="87" height="87" viewBox="0 0 87 87">
  <defs>
    <style>
      .cls-1 {
        fill: #fff;
        fill-rule: evenodd;
      }
    </style>
  </defs>
  <path class="cls-1" d="M548.3,2900.26a10.584,10.584,0,1,0-17.6-.01,17.652,17.652,0,0,0-8.834,15.26v4.75a1.177,1.177,0,0,0,1.176,1.17h32.918a1.177,1.177,0,0,0,1.176-1.17v-4.75A17.623,17.623,0,0,0,548.3,2900.26Zm-8.8-14.1a8.222,8.222,0,0,1,4.843,14.87,8.174,8.174,0,0,1-9.688,0,8.284,8.284,0,0,1-1.823-1.83A8.217,8.217,0,0,1,539.5,2886.16Zm15.284,32.92H524.216v-3.57a15.292,15.292,0,0,1,8.024-13.44,10.538,10.538,0,0,0,14.52,0,15.292,15.292,0,0,1,8.024,13.44v3.57Zm22.337-16.46a5.814,5.814,0,0,0-3.238.98L544.4,2874.12a5.878,5.878,0,1,0-9.8,0l-29.482,29.48a5.815,5.815,0,0,0-3.239-.98,5.88,5.88,0,0,0,0,11.76,5.815,5.815,0,0,0,3.239-.98l29.482,29.48a5.878,5.878,0,1,0,9.8,0l29.482-29.48a5.814,5.814,0,0,0,3.238.98A5.88,5.88,0,0,0,577.121,2902.62ZM539.5,2867.35a3.531,3.531,0,0,1,3.527,3.53,3.478,3.478,0,0,1-.354,1.51,3.528,3.528,0,0,1-1.662,1.66,3.437,3.437,0,0,1-3.022,0,3.53,3.53,0,0,1-1.663-1.66,3.492,3.492,0,0,1-.353-1.51A3.531,3.531,0,0,1,539.5,2867.35Zm-34.448,42.66a3.525,3.525,0,0,1-1.663,1.66,3.488,3.488,0,0,1-1.511.36,3.53,3.53,0,0,1,0-7.06,3.359,3.359,0,0,1,1.512.36A3.473,3.473,0,0,1,505.052,2910.01Zm34.448,39.64a3.531,3.531,0,0,1-3.527-3.53,3.478,3.478,0,0,1,.354-1.51,3.525,3.525,0,0,1,1.663-1.66,3.537,3.537,0,0,1,5.039,3.17A3.534,3.534,0,0,1,539.5,2949.65Zm32.72-37.91-29.482,29.48a5.839,5.839,0,0,0-6.476,0l-29.482-29.48a5.861,5.861,0,0,0,0-6.48l29.482-29.48a5.839,5.839,0,0,0,6.476,0l29.482,29.48A5.861,5.861,0,0,0,572.22,2911.74Zm4.9,0.29a3.5,3.5,0,0,1-1.511-.36,3.555,3.555,0,0,1-2.016-3.17,3.492,3.492,0,0,1,.354-1.51,3.546,3.546,0,0,1,1.663-1.67,3.484,3.484,0,0,1,1.511-.35A3.53,3.53,0,0,1,577.121,2912.03Z" transform="translate(-496 -2865)"/>
</svg>
