<svg xmlns="http://www.w3.org/2000/svg" width="50.65" height="42.53" viewBox="0 0 50.65 42.53">
  <defs>
    <style>
      .cls-1 {
        fill: #fff;
        fill-rule: evenodd;
      }
    </style>
  </defs>
  <path class="cls-1" d="M1353.03,3402.39c-1.4-.58-2.81-1.09-4.22-1.57v-20.54h-4.23v4.26h-33.76v-4.26h-4.22v20.54c-1.42.48-2.84,1-4.22,1.58h0v20.42h4.22v-6.38h42.21v6.38h4.22V3402.4h0v-0.01Zm-8.45-2.85a65.39,65.39,0,0,0-14.77-2.2v-8.55h14.77v10.75Zm-33.76-10.75h14.77v8.56a65.952,65.952,0,0,0-14.77,2.18v-10.74Zm-4.22,23.4v-6.88a61.035,61.035,0,0,1,42.21,0v6.88H1306.6Z" transform="translate(-1302.38 -3380.28)"/>
</svg>
