<svg xmlns="http://www.w3.org/2000/svg" width="55.97" height="56" viewBox="0 0 55.97 56">
  <defs>
    <style>
      .cls-1 {
        fill: #fff;
        fill-rule: evenodd;
      }
    </style>
  </defs>
  <path class="cls-1" d="M1407.53,2937.15l-15.51-15.59a22.692,22.692,0,1,0-17.34,8.04,22.409,22.409,0,0,0,14.84-5.7l15.35,15.6a1.607,1.607,0,0,0,2.33,0A1.442,1.442,0,0,0,1407.53,2937.15Zm-32.68-10.9a19.45,19.45,0,1,1,19.34-19.45,20.4,20.4,0,0,1-4.33,12.41,15.294,15.294,0,0,1-2.34,2.35A20,20,0,0,1,1374.85,2926.25Z" transform="translate(-1352 -2884)"/>
</svg>
