<svg xmlns="http://www.w3.org/2000/svg" width="38" height="51" viewBox="0 0 38 51">
  <defs>
    <style>
      .cls-1 {
        fill: #fff;
        fill-rule: evenodd;
      }
    </style>
  </defs>
  <path class="cls-1" d="M957.629,3376c-10.49,0-18.994,3.8-18.994,8.5v12.75c0,2.99,3.453,5.61,8.664,7.13l-6.554,18.37h4.485l6.23-17.47a39.538,39.538,0,0,0,4.058.41V3427h4.221v-21.31a39.538,39.538,0,0,0,4.058-.41l6.23,17.47h4.485l-6.554-18.37c5.21-1.52,8.664-4.14,8.664-7.13V3384.5C976.622,3379.8,968.119,3376,957.629,3376Zm0,25.5c-9.272,0-14.4-3.14-14.773-4.25v-7.41c3.482,1.92,8.8,3.16,14.773,3.16s11.3-1.24,14.777-3.17l0.006,7.33C972.028,3398.36,966.9,3401.5,957.629,3401.5Zm0-12.75c-9.272,0-14.4-3.14-14.784-4.34,0.383-1.02,5.512-4.16,14.784-4.16s14.4,3.14,14.783,4.34C972.028,3385.61,966.9,3388.75,957.629,3388.75Z" transform="translate(-938.625 -3376)"/>
</svg>
