<svg xmlns="http://www.w3.org/2000/svg" width="50.656" height="51" viewBox="0 0 50.656 51">
  <defs>
    <style>
      .cls-1 {
        fill: #fff;
        fill-rule: evenodd;
      }
    </style>
  </defs>
  <path class="cls-1" d="M621.428,3376H579.221a4.247,4.247,0,0,0-4.221,4.25v42.5a4.247,4.247,0,0,0,4.221,4.25h42.207a4.247,4.247,0,0,0,4.221-4.25v-42.5A4.247,4.247,0,0,0,621.428,3376Zm0,46.75H579.221v-34h21.1v-4.25h-21.1v-4.25h42.207v42.5Zm-16.883-38.25h4.221v4.25h-4.221v-4.25Zm8.442,0h4.221v4.25h-4.221v-4.25Zm-12.663,8.5a12.75,12.75,0,1,0,12.663,12.75A12.707,12.707,0,0,0,600.324,3393Zm0,21.25a8.5,8.5,0,1,1,8.442-8.5A8.468,8.468,0,0,1,600.324,3414.25Z" transform="translate(-575 -3376)"/>
</svg>
