<svg xmlns="http://www.w3.org/2000/svg" width="84" height="62" viewBox="0 0 84 62">
  <defs>
    <style>
      .cls-1 {
        fill: #fff;
        fill-rule: evenodd;
      }
    </style>
  </defs>
  <path class="cls-1" d="M935.931,2893.6a1.309,1.309,0,0,0,.885,1.6c3.186,0.9,5.664,1.88,8.142,2.68,2.478,0.9,4.956,1.88,8.32,2.77,0.088,0,.265.09,0.353,0.09a1.272,1.272,0,0,0,.355-2.5c-3.275-.89-5.753-1.88-8.143-2.77-2.478-.89-4.956-1.87-8.319-2.77A1.3,1.3,0,0,0,935.931,2893.6Zm17.966,14.74c-3.275-.9-5.753-1.88-8.142-2.77-2.478-.9-4.956-1.88-8.32-2.77a1.3,1.3,0,0,0-1.593.89,1.32,1.32,0,0,0,.885,1.61c3.186,0.89,5.665,1.88,8.143,2.68,2.478,0.89,4.956,1.88,8.319,2.77,0.089,0,.266.09,0.354,0.09a1.333,1.333,0,0,0,1.239-.9A1.309,1.309,0,0,0,953.9,2908.34Zm0,10.18a85.99,85.99,0,0,1-8.142-2.77c-2.478-.89-4.956-1.87-8.32-2.77a1.3,1.3,0,0,0-.708,2.5c3.275,0.9,5.753,1.88,8.143,2.68,2.478,0.9,4.956,1.88,8.319,2.77,0.089,0,.266.09,0.354,0.09a1.337,1.337,0,0,0,1.239-.89A1.28,1.28,0,0,0,953.9,2918.52Zm0,10.19c-3.275-.9-5.753-1.88-8.142-2.69-2.478-.89-4.956-1.87-8.32-2.76a1.3,1.3,0,0,0-1.593.89,1.324,1.324,0,0,0,.885,1.61c3.186,0.89,5.753,1.87,8.143,2.68,2.478,0.89,4.956,1.87,8.319,2.77,0.089,0,.266.09,0.354,0.09A1.321,1.321,0,0,0,953.9,2928.71Zm48.943-39.31h-6.2v-7.15a1.354,1.354,0,0,0-.354-0.89,1.316,1.316,0,0,0-.973-0.36c-6.9.27-12.037,2.32-17.082,4.38-5.044,1.96-9.735,3.84-16.2,4.2-6.46-.27-11.151-2.15-16.2-4.2-5.044-1.97-10.178-4.02-17.081-4.38a1.32,1.32,0,0,0-.974.36,1.133,1.133,0,0,0-.354.89v7.15h-6.195a1.212,1.212,0,0,0-1.239,1.25v51.1a1.218,1.218,0,0,0,1.239,1.25h81.511a1.217,1.217,0,0,0,1.24-1.25v-51.1A1.1,1.1,0,0,0,1002.84,2889.4Zm-80.273,51.1v-48.51h4.956v41.09a1.212,1.212,0,0,0,1.239,1.25c6.461,0.27,11.24,2.15,16.285,4.2,1.681,0.63,3.363,1.34,5.133,1.97H922.567Zm38.233-.27c-5.841-.45-10.266-2.23-14.957-4.02-4.691-1.88-9.558-3.84-15.842-4.29v-48.33c5.753,0.45,10.266,2.23,14.957,4.11s9.559,3.75,15.842,4.29v48.24Zm2.479-48.24c6.283-.45,11.151-2.41,15.842-4.29s9.116-3.66,14.957-4.11v48.33c-6.284.45-11.152,2.41-15.843,4.29-4.69,1.79-9.115,3.57-14.956,4.02v-48.24Zm38.231,48.51H973.988c1.769-.63,3.451-1.25,5.133-1.97,5.044-1.96,9.824-3.84,16.284-4.2a1.267,1.267,0,0,0,1.239-1.25v-41.09h4.956v48.51h-0.09Zm-30.974-39.76a0.527,0.527,0,0,0,.354-0.09c3.363-.98,5.841-1.87,8.319-2.77,2.39-.89,4.868-1.78,8.142-2.68a1.3,1.3,0,0,0-.707-2.5c-3.364.98-5.842,1.88-8.32,2.77-2.389.89-4.868,1.79-8.142,2.77a1.28,1.28,0,0,0-.885,1.61A1.358,1.358,0,0,0,970.536,2900.74Zm0,10.1a0.527,0.527,0,0,0,.354-0.09c3.363-.98,5.841-1.88,8.319-2.77,2.39-.89,4.868-1.79,8.142-2.68a1.282,1.282,0,0,0,.886-1.61,1.266,1.266,0,0,0-1.593-.89c-3.364.98-5.842,1.87-8.32,2.77-2.389.89-4.868,1.78-8.142,2.77a1.27,1.27,0,0,0-.885,1.6A1.251,1.251,0,0,0,970.536,2910.84Zm0,10.18a0.527,0.527,0,0,0,.354-0.09c3.363-.98,5.841-1.87,8.319-2.77,2.39-.89,4.868-1.78,8.142-2.68a1.3,1.3,0,0,0-.707-2.5c-3.364.98-5.842,1.88-8.32,2.77-2.389.89-4.868,1.79-8.142,2.77a1.28,1.28,0,0,0-.885,1.61A1.255,1.255,0,0,0,970.536,2921.02Zm16.727,4.65a1.285,1.285,0,0,0,.885-1.61,1.258,1.258,0,0,0-1.593-.89c-3.363.98-5.841,1.87-8.32,2.77-2.389.89-4.867,1.78-8.142,2.68a1.27,1.27,0,0,0-.885,1.6,1.333,1.333,0,0,0,1.239.9,0.524,0.524,0,0,0,.354-0.09c3.363-.98,5.841-1.88,8.32-2.77C981.51,2927.54,983.988,2926.56,987.263,2925.67Z" transform="translate(-920 -2881)"/>
</svg>
