<svg id="Grupa_2" data-name="Grupa 2" xmlns="http://www.w3.org/2000/svg" width="38" height="38" viewBox="0 0 38 38">
  <defs>
    <style>
      .cls-1 {
        fill-rule: evenodd;
      }
    </style>
  </defs>
  <path id="Ellipse_1_copy" data-name="Ellipse 1 copy" class="cls-1" d="M1540,67a19,19,0,1,1-19,19A19,19,0,0,1,1540,67Zm0,3.393A15.607,15.607,0,1,1,1524.39,86,15.609,15.609,0,0,1,1540,70.392Z" transform="translate(-1521 -67)"/>
  <path class="cls-1" d="M1536.35,94.006V83.421h-3.25V94.006h3.25Zm0-14.336a1.675,1.675,0,1,0-1.7,1.669h0.02A1.6,1.6,0,0,0,1536.35,79.669Zm5.32,14.337V87.975a2.343,2.343,0,0,1,.12-0.876,2.039,2.039,0,0,1,3.94.876v6.031h3.28V87.814c0-3.317-1.77-4.86-4.12-4.86a3.547,3.547,0,0,0-3.24,1.819l0.02-1.415h-3.28c0.05,1.013,0,10.648,0,10.648h3.28Z" transform="translate(-1521 -67)"/>
</svg>
