<svg xmlns="http://www.w3.org/2000/svg" width="38" height="51" viewBox="0 0 38 51">
  <defs>
    <style>
      .cls-1 {
        fill: #fff;
        fill-rule: evenodd;
      }
    </style>
  </defs>
  <path class="cls-1" d="M1172.52,3397.61l-5.96-6.01v-2.85h4.22v-6.38a6.353,6.353,0,0,0-6.33-6.37h-16.89a6.353,6.353,0,0,0-6.33,6.37v6.38h4.22v2.85l-5.97,6.01a8.548,8.548,0,0,0-2.47,6.01v19.13a4.24,4.24,0,0,0,4.22,4.25h29.55a4.234,4.234,0,0,0,4.22-4.25v-19.13A8.514,8.514,0,0,0,1172.52,3397.61Zm-27.07-15.24a2.119,2.119,0,0,1,2.11-2.12h16.89a2.119,2.119,0,0,1,2.11,2.12v2.13h-21.11v-2.13Zm25.33,40.38h-29.55v-19.13a4.221,4.221,0,0,1,1.24-3l7.2-7.26v-4.61h12.67v4.61l7.2,7.26a4.221,4.221,0,0,1,1.24,3v19.13Zm-6.33-17h-6.34v-6.38h-4.22v6.38h-6.33V3410h6.33v6.37h4.22V3410h6.34v-4.25Z" transform="translate(-1137 -3376)"/>
</svg>
