<svg xmlns="http://www.w3.org/2000/svg" width="50.657" height="51" viewBox="0 0 50.657 51">
  <defs>
    <style>
      .cls-1 {
        fill: #fff;
        fill-rule: evenodd;
      }
    </style>
  </defs>
  <path class="cls-1" d="M801.514,3399.37a2.125,2.125,0,1,1-2.11,2.13A2.124,2.124,0,0,1,801.514,3399.37Zm0,6.38a2.125,2.125,0,1,1-2.11,2.12A2.115,2.115,0,0,1,801.514,3405.75Zm4.22-12.75H782.16l13.9-14-2.985-3L778.3,3390.88,763.527,3376l-2.984,3,13.894,14h-10.91a4.247,4.247,0,0,0-4.221,4.25v25.5a4.247,4.247,0,0,0,4.221,4.25h42.207a4.247,4.247,0,0,0,4.221-4.25v-25.5A4.247,4.247,0,0,0,805.734,3393Zm0,21.25h-8.441v-17h8.441v17Zm-42.207-17h29.545v25.5H763.527v-25.5Zm33.766,25.5v-4.25h8.441v4.25h-8.441Z" transform="translate(-759.312 -3376)"/>
</svg>
