<svg xmlns="http://www.w3.org/2000/svg" width="56" height="67" viewBox="0 0 56 67">
  <defs>
    <style>
      .cls-1 {
        fill: #00c1f1;
        fill-rule: evenodd;
      }
    </style>
  </defs>
  <path class="cls-1" d="M672.47,2096.4a1.015,1.015,0,0,0-1.071-1.08H644.635a1.08,1.08,0,0,0,0,2.16H671.4A1.015,1.015,0,0,0,672.47,2096.4Zm-27.835-6.49H671.4a1.085,1.085,0,0,0,0-2.17H644.635A1.085,1.085,0,0,0,644.635,2089.91Zm0,12.98a1.085,1.085,0,0,0,0,2.17h16.058a1.085,1.085,0,0,0,0-2.17H644.635Zm46.248,16.24-1.391-3.03,0.428-3.36a1.035,1.035,0,0,0-.428-1.08l-2.784-1.84-1.392-3.03a1.033,1.033,0,0,0-.963-0.65h-3.319v-27.06a1.015,1.015,0,0,0-1.07-1.08H636.071a1.015,1.015,0,0,0-1.071,1.08v53.04a1.015,1.015,0,0,0,1.071,1.08h29.975a1.085,1.085,0,0,0,0-2.17H637.141v-50.87h41.752v24.57l-0.642-.43a1.134,1.134,0,0,0-1.178,0l-2.783,1.84h-3.319a1.034,1.034,0,0,0-.964.65l-1.391,3.03-2.784,1.84a1.035,1.035,0,0,0-.428,1.08l0.428,3.36-1.392,3.03a1,1,0,0,0,.214,1.19l2.142,2.49,0.428,3.35a1.043,1.043,0,0,0,.749.87l2.355,0.65v16.23a0.95,0.95,0,0,0,.643.98,0.63,0.63,0,0,0,.428.11,0.959,0.959,0,0,0,.749-0.33l5.567-5.63,5.567,5.63a0.973,0.973,0,0,0,1.178.22,1.045,1.045,0,0,0,.642-0.98v-16.23l2.355-.65a0.915,0.915,0,0,0,.75-0.87l0.428-3.35,2.141-2.49A1.212,1.212,0,0,0,690.883,2119.13Zm-12.418,17.75a1.032,1.032,0,0,0-1.5,0l-4.5,4.44v-11.91l0.856,1.08a1.068,1.068,0,0,0,1.071.33l2.248-.65v4.11a1.071,1.071,0,1,0,2.141,0v-4l1.927,0.54h0.321a1.2,1.2,0,0,0,.856-0.33l0.964-1.08v11.91Zm8.243-15.26a0.825,0.825,0,0,0-.214.54l-0.428,2.92-2.784.87c-0.214.11-.321,0.21-0.535,0.32l-1.927,2.27-2.784-.86a0.666,0.666,0,0,0-.642,0l-2.783.86-1.927-2.27a0.894,0.894,0,0,0-.536-0.32l-2.89-.87-0.428-2.92a0.825,0.825,0,0,0-.214-0.54l-1.927-2.28,1.177-2.7a1.389,1.389,0,0,0,.107-0.65l-0.428-2.92,2.462-1.63a1.5,1.5,0,0,0,.429-0.43l1.177-2.7h3a0.806,0.806,0,0,0,.535-0.22l2.462-1.63,2.463,1.63a1.112,1.112,0,0,0,.535.22h3l1.178,2.7a0.794,0.794,0,0,0,.428.43l2.463,1.63-0.429,2.92a1.389,1.389,0,0,0,.107.65l1.178,2.7Zm-8.886-10.07a6.5,6.5,0,1,0,6.424,6.5A6.478,6.478,0,0,0,677.822,2111.55Zm0,10.83a4.33,4.33,0,1,1,4.283-4.33A4.32,4.32,0,0,1,677.822,2122.38Z" transform="translate(-635 -2078)"/>
</svg>
